<mxfile host="app.diagrams.net" modified="2024-07-24T00:49:31.785Z" agent="Mozilla/5.0 (Windows NT 10.0; Win64; x64) AppleWebKit/537.36 (KHTML, like Gecko) Chrome/126.0.0.0 Safari/537.36 Edg/126.0.0.0" version="24.7.3" etag="v4QnqL_mGdv7PumJkSPD" type="github">
  <diagram name="第 1 页" id="W9JKzioOsDc_GMT5dGrl">
    <mxGraphModel>
      <root>
        <mxCell id="0" />
        <mxCell id="1" parent="0" />
      </root>
    </mxGraphModel>
  </diagram>
</mxfile>
